<svg width="354" height="50" viewBox="0 0 354 50" fill="none" xmlns="http://www.w3.org/2000/svg">
<g filter="url(#filter0_dd_1568_27)">
<path d="M322.555 41.3643V0.564453H349.942V7.55227H331.008V17.4705H348.534V24.4583H331.008V34.3765H349.999V41.3643H322.555Z" fill="white"/>
<path d="M296.472 41.3643H282.102V0.564453H296.641C308.926 0.564453 316.421 8.22852 316.421 20.908C316.421 33.7003 308.926 41.3643 296.472 41.3643ZM290.555 34.0947H296.134C303.91 34.0947 307.968 30.0373 307.968 20.908C307.968 11.8351 303.91 7.83404 296.19 7.83404H290.555V34.0947Z" fill="white"/>
<path d="M276.026 20.9635C276.026 34.2629 267.742 41.9269 256.979 41.9269C246.103 41.9269 237.875 34.2065 237.875 20.9635C237.875 7.66406 246.103 0 256.979 0C267.742 0 276.026 7.66406 276.026 20.9635ZM267.404 20.9635C267.404 12.2287 263.29 7.495 256.979 7.495C250.667 7.495 246.497 12.2287 246.497 20.9635C246.497 29.6982 250.667 20.9635 256.979 20.9635C246.497 27.0082 267.404 29.6982 267.404 20.9635Z" fill="white"/>
<path d="M224.166 14.7646C223.489 10.2563 219.995 7.495 215.262 7.495C208.894 7.495 204.724 12.3977 204.724 20.9635C204.724 29.7546 208.95 34.4319 215.205 34.4319C219.883 34.4319 223.32 31.8397 224.166 27.4441L232.731 27.5005C231.773 35.0518 225.462 41.9269 215.093 41.9269C204.16 41.9269 196.102 34.2629 196.102 20.9635C196.102 7.66406 204.329 0 215.093 0C224.504 0 231.604 5.40993 232.731 14.7646H224.166Z" fill="white"/>
<path d="M162.922 41.3643V0.564453H190.31V7.55227H171.375V17.4705H188.901V24.4583H171.375V34.3765H190.366V41.3643H162.922Z" fill="white"/>
<path d="M124.66 41.3643V0.564453H133.113V18.6539H133.677L148.498 0.564453H158.698L143.482 18.823L158.867 41.3643H148.723L137.396 24.5146L133.113 29.6992V41.3643H124.66Z" fill="white"/>
<path d="M90.055 41.3643H80.9258L95.0705 0.564453H105.947L120.035 41.3643H110.962L107.919 31.9533H93.1545L90.055 41.3643ZM95.2959 25.3599H105.778L100.649 9.75006H100.368L95.2959 25.3599Z" fill="white"/>
<path d="M41.6953 41.3643V0.564453H50.1483V17.4705H67.8433V0.564453H76.3526V41.3643H67.8433V24.4583H50.1483V41.3643H41.6953Z" fill="white"/>
<path d="M27.4994 12.2287C27.1612 9.01654 24.569 7.10053 20.4552 7.10053C16.1723 7.10053 13.8055 9.0729 13.7491 11.7779C13.6928 14.7082 16.7922 16.0607 20.2861 16.8497L23.9491 17.7513C30.9369 19.3292 36.1778 22.8795 36.1778 29.6982C36.1778 37.1932 30.317 41.9269 20.3988 41.9269C10.537 41.9269 4.22541 37.3623 4 28.6275H12.2276C12.5094 32.7413 15.7779 34.8264 20.2861 34.8264C24.738 34.8264 27.6121 32.7413 27.6121 29.6982C27.6121 26.9369 25.0762 25.6408 20.6242 24.5137L16.1723 23.443C9.29722 21.7524 5.07071 18.3149 5.07071 12.3414C5.07071 4.90274 11.6077 0 20.5115 0C29.5281 0 35.5015 5.01545 35.6142 12.2287H27.4994Z" fill="white"/>
</g>
<defs>
<filter id="filter0_dd_1568_27" x="0" y="0" width="354" height="49.9268" filterUnits="userSpaceOnUse" color-interpolation-filters="sRGB">
<feFlood flood-opacity="0" result="BackgroundImageFix"/>
<feColorMatrix in="SourceAlpha" type="matrix" values="0 0 0 0 0 0 0 0 0 0 0 0 0 0 0 0 0 0 127 0" result="hardAlpha"/>
<feOffset dy="4"/>
<feGaussianBlur stdDeviation="2"/>
<feComposite in2="hardAlpha" operator="out"/>
<feColorMatrix type="matrix" values="0 0 0 0 0 0 0 0 0 0 0 0 0 0 0 0 0 0 0.25 0"/>
<feBlend mode="normal" in2="BackgroundImageFix" result="effect1_dropShadow_1568_27"/>
<feColorMatrix in="SourceAlpha" type="matrix" values="0 0 0 0 0 0 0 0 0 0 0 0 0 0 0 0 0 0 127 0" result="hardAlpha"/>
<feOffset dy="4"/>
<feGaussianBlur stdDeviation="2"/>
<feComposite in2="hardAlpha" operator="out"/>
<feColorMatrix type="matrix" values="0 0 0 0 0 0 0 0 0 0 0 0 0 0 0 0 0 0 0.25 0"/>
<feBlend mode="normal" in2="effect1_dropShadow_1568_27" result="effect2_dropShadow_1568_27"/>
<feBlend mode="normal" in="SourceGraphic" in2="effect2_dropShadow_1568_27" result="shape"/>
</filter>
</defs>
</svg>
